# xmcd
#
# Track frame offsets:
#	150
#	16312
#	29626
#	41575
#	59097
#	78272
#	95078
#	104657
#	121860
#	139920
#	158192
#	174697
#	192463
#	198778
#	212005
#	235587
#	251858
#
# Disc length: 3427 seconds
#
# Revision: 1
# Processed by: cddbd v1.5.1PL2 Copyright (c) Steve Scherf et al.
# Submitted via: audiograbber 1.81.02
#
DISCID=f60d6111
DTITLE=Various Artist - The Second Chance (Original Motion Picture Soundtrack)
DYEAR=2006
DGENRE=Soundtrack
TTITLE0=Movin' On Up - Third Day
TTITLE1=All In The Serve - Michael W. Smith
TTITLE2=Follow Me - Michael W. Smith feat. Andrae Crouch
TTITLE3=Refuge (When It's Cold Outside) - John Legend
TTITLE4=Nothing But The Blood - Jars of Clay feat. The Blind Boy of Alabama
TTITLE5=Total Praise - Michael W. Smith
TTITLE6=Footwashing - Michael W. Smith
TTITLE7=Homeless Child - The Homes Brothers
TTITLE8=I Surrender All - Reuben Studdard
TTITLE9=Hang On (Pajam Remix) - Michael W. Smith feat. 21:30
TTITLE10=The Last Hallelujah - Michael W. Smith
TTITLE11=I'm Glad About It - Fred Hammond
TTITLE12=Ethan Testifies - Michael W. Smith
TTITLE13=The Solid Rock - Michael W. Smith
TTITLE14=We Must Praise - J. Moss
TTITLE15=On The Rooftop - Michael W. Smith
TTITLE16=Daten-CD
EXTD=www.gerth.de - ArtNr. 3544140
EXTT0=
EXTT1=
EXTT2=
EXTT3=
EXTT4=
EXTT5=
EXTT6=
EXTT7=
EXTT8=
EXTT9=
EXTT10=
EXTT11=
EXTT12=
EXTT13=
EXTT14=
EXTT15=
EXTT16=
PLAYORDER=
